<?xml version="1.0" standalone="no"?>
<!DOCTYPE svg PUBLIC "-//W3C//DTD SVG 20010904//EN"
 "http://www.w3.org/TR/2001/REC-SVG-20010904/DTD/svg10.dtd">
<svg version="1.0" xmlns="http://www.w3.org/2000/svg"
 width="535.000000pt" height="535.000000pt" viewBox="0 0 535.000000 535.000000"
 preserveAspectRatio="xMidYMid meet">
<metadata>
Created by potrace 1.14, written by Peter Selinger 2001-2017
</metadata>
<g transform="translate(0.000000,535.000000) scale(0.100000,-0.100000)"
fill="#000000" stroke="none">
<path d="M2240 4568 c0 -3 -7 -42 -15 -85 -17 -89 -20 -349 -5 -434 5 -30 11
-69 14 -87 l4 -33 -56 32 c-92 51 -285 185 -312 216 -25 27 -25 28 -1 8 46
-38 16 4 -72 100 -83 91 -170 175 -153 148 4 -7 3 -13 -3 -13 -5 0 -8 -15 -7
-32 2 -18 1 -24 -1 -13 -3 11 -8 24 -13 28 -16 17 29 -195 81 -383 11 -41 25
-90 29 -109 5 -19 14 -37 21 -41 6 -4 -69 -11 -167 -14 -99 -4 -258 -11 -354
-17 -382 -22 -419 -22 -517 -1 -51 11 -93 15 -93 10 0 -5 -4 -6 -10 -3 -17 10
-11 -12 7 -26 15 -12 16 -12 8 1 -5 9 0 8 13 -4 25 -21 31 -36 7 -16 -8 7 -15
8 -15 3 0 -5 21 -29 47 -53 l48 -45 -35 40 c-19 22 -4 11 33 -25 37 -35 67
-67 67 -69 0 -3 -13 7 -28 22 -16 15 -32 24 -37 20 -4 -5 -5 -2 0 6 6 10 4 12
-4 7 -8 -6 0 -19 28 -43 24 -20 38 -40 34 -46 -3 -7 -2 -9 2 -4 5 4 16 0 26
-9 11 -10 19 -12 24 -5 6 11 5 12 -17 15 -6 0 -12 8 -13 17 -2 13 189 -120
220 -154 10 -10 -64 41 -132 91 -18 14 -33 22 -33 19 0 -9 270 -202 283 -202
12 0 127 -83 127 -92 0 -2 -4 -2 -9 1 -4 3 -6 -6 -3 -19 3 -18 11 -25 26 -25
19 1 19 2 3 11 -9 6 -15 14 -12 19 3 5 38 -11 78 -37 227 -146 673 -331 907
-378 63 -12 171 -33 240 -45 92 -17 118 -25 100 -30 -26 -7 -162 -20 -425 -41
-290 -22 -484 -81 -590 -178 -30 -27 -34 -29 -15 -7 l25 30 -31 -22 c-17 -12
-34 -19 -37 -16 -3 3 -4 -2 -2 -13 1 -10 8 -17 14 -15 16 3 14 -3 -6 -19 -14
-12 -16 -12 -9 1 4 8 -2 4 -13 -10 -11 -14 -19 -31 -16 -38 3 -7 1 -10 -5 -7
-10 6 -33 -33 -44 -75 -6 -20 -5 -22 4 -10 10 13 11 12 6 -3 -3 -10 -6 -24 -6
-30 0 -8 -4 -7 -9 2 -12 18 -35 -82 -28 -124 3 -22 5 -17 7 20 2 40 5 32 12
-45 5 -52 9 -103 9 -112 0 -10 6 -18 12 -18 7 0 6 -4 -3 -10 -12 -8 -12 -10 5
-11 11 0 14 -3 8 -6 -20 -8 -15 -26 5 -18 14 5 15 4 5 -6 -20 -20 -16 -42 6
-36 13 3 18 0 15 -8 -3 -7 0 -16 7 -21 8 -5 10 -3 4 6 -5 8 -4 11 3 6 6 -4 9
-12 6 -19 -5 -13 65 -129 84 -141 6 -3 14 -1 18 5 5 8 3 9 -7 4 -8 -5 -11 -4
-6 0 4 5 -3 20 -15 34 -12 14 10 -5 50 -44 39 -38 72 -72 72 -74 0 -3 -18 13
-40 34 -22 21 -40 36 -40 32 0 -8 78 -80 93 -86 6 -2 7 2 2 10 -5 8 1 5 13 -5
17 -15 19 -22 11 -33 -6 -7 -8 -13 -5 -13 4 0 2 -9 -5 -21 -10 -19 1 -33 113
-143 67 -67 202 -182 298 -256 96 -74 197 -157 225 -184 27 -27 53 -50 57 -50
3 -1 10 -5 15 -10 5 -5 3 -6 -4 -2 -7 4 -13 5 -13 3 0 -17 93 -186 100 -182 4
3 11 -3 14 -12 6 -15 8 -15 23 0 13 13 14 23 5 59 l-11 43 4 -50 4 -50 -14 60
c-8 33 -14 69 -13 80 0 13 3 9 8 -10 7 -26 8 -27 9 -7 1 26 -28 136 -35 130
-2 -2 1 -21 7 -42 6 -21 9 -40 6 -42 -2 -2 -11 21 -19 51 -8 30 -11 52 -7 49
17 -10 8 21 -20 76 -15 30 -33 55 -39 55 -6 0 -14 4 -19 9 -5 5 -3 6 5 2 24
-14 11 11 -20 40 l-33 29 25 -30 c14 -16 0 -7 -30 20 -30 28 -54 54 -52 59 2
5 -4 6 -12 3 -9 -4 -18 -2 -20 2 -14 22 13 15 105 -26 62 -27 108 -41 120 -38
11 4 17 11 13 16 -3 5 -10 7 -15 4 -5 -4 -56 37 -114 89 -57 53 -99 96 -93 96
6 0 3 10 -8 22 -10 13 14 -6 54 -41 40 -35 70 -66 67 -69 -7 -7 75 -92 89 -92
6 0 -10 21 -34 48 -41 42 -39 42 12 -7 31 -30 56 -59 55 -65 -1 -6 5 -10 13
-8 8 2 12 0 8 -4 -8 -7 70 -99 84 -99 3 0 10 -4 15 -9 5 -5 2 -6 -6 -1 -9 5
-12 3 -9 -6 3 -8 10 -14 16 -14 5 0 14 -4 19 -9 5 -5 2 -6 -6 -1 -17 10 -19
15 56 -131 49 -95 66 -120 84 -121 21 -2 22 0 16 70 -4 40 -13 95 -20 124 -8
29 -10 50 -5 47 27 -17 -38 126 -74 161 -11 11 -18 14 -14 8 10 -19 1 -16 -15
4 -10 11 -10 14 -1 9 21 -12 13 10 -10 30 -22 19 -23 19 -8 -1 8 -11 -3 -4
-23 14 -20 19 -37 37 -37 40 0 2 11 -6 25 -19 14 -13 25 -19 25 -13 0 16 -46
54 -55 46 -4 -5 -5 -3 -2 3 4 7 -34 46 -87 93 -90 78 -116 95 -100 69 4 -7 -2
-4 -14 6 -26 23 -29 33 -4 16 37 -26 -56 53 -113 96 -47 36 -50 37 -15 7 89
-76 103 -94 28 -33 -43 33 -77 66 -75 73 1 7 -5 11 -13 10 -9 -2 -45 27 -80
64 -36 37 -57 61 -47 54 9 -8 17 -9 17 -4 0 12 -41 50 -45 43 -2 -3 -7 -1 -12
4 -5 6 -2 6 6 1 11 -6 13 -4 8 8 -4 11 -2 14 9 10 7 -3 14 -9 14 -14 0 -5 5
-9 11 -9 5 0 8 3 5 8 -2 4 26 -7 62 -25 37 -18 74 -33 82 -34 8 -1 -3 -5 -25
-8 -26 -4 -40 -11 -40 -21 0 -8 5 -15 12 -15 14 0 28 -13 28 -27 0 -6 6 -13
14 -16 9 -3 11 0 6 8 -4 6 11 -1 34 -16 57 -38 128 -44 178 -15 l38 21 -30
-24 c-16 -14 -38 -27 -50 -29 -20 -4 -20 -4 0 -6 21 -1 95 53 95 70 0 6 -5 7
-12 3 -7 -4 -8 -3 -4 5 4 6 11 9 16 6 11 -7 40 47 40 74 0 29 -39 113 -49 106
-5 -3 -13 0 -17 6 -4 8 -3 9 4 5 18 -11 14 10 -5 25 -15 12 -16 12 -8 -1 5 -9
0 -8 -13 4 -25 21 -31 36 -7 16 11 -9 15 -9 15 -1 0 9 -39 31 -55 31 -2 0 -7
-25 -10 -55 -4 -30 -11 -57 -15 -60 -3 -2 -3 17 1 43 9 56 11 77 5 71 -3 -3
-9 -31 -15 -64 -5 -33 -13 -69 -17 -79 -6 -15 -4 -17 7 -11 8 4 5 -2 -7 -14
-12 -12 -37 -24 -60 -26 l-39 -5 40 10 c22 6 44 15 50 21 5 5 -5 5 -23 -2 -18
-6 -35 -9 -38 -7 -2 3 5 27 17 54 11 27 23 72 26 100 5 46 3 54 -27 87 -18 20
-36 37 -42 37 -5 0 4 -12 19 -26 23 -20 20 -19 -16 5 -55 39 -104 41 -155 6
-20 -13 -36 -22 -36 -18 0 3 -7 0 -15 -7 -16 -13 -21 -35 -6 -26 5 4 7 -4 3
-16 -5 -22 -5 -22 -14 2 -5 14 -5 35 2 53 13 38 13 40 -2 31 -10 -5 -10 -4 -1
6 7 8 18 15 25 16 7 1 31 7 53 13 l40 11 -45 -4 c-38 -3 -41 -2 -22 7 32 15
126 -4 237 -48 59 -23 93 -31 99 -25 7 7 6 10 -3 10 -7 0 -9 5 -5 12 4 7 3 8
-4 4 -6 -4 -32 9 -58 29 -125 96 -232 108 -337 39 l-52 -34 40 36 c22 20 31
31 20 23 -33 -22 -75 -62 -75 -71 0 -5 6 -6 13 -2 7 4 9 3 4 -2 -5 -5 -14 -9
-20 -9 -5 0 -12 -6 -15 -14 -3 -9 0 -11 9 -6 8 5 11 4 6 -1 -5 -5 -14 -9 -19
-9 -15 0 -36 -62 -37 -110 -1 -48 -16 -78 -24 -49 -7 23 -10 88 -6 129 1 17 6
-6 9 -50 l6 -80 2 83 c1 60 8 95 22 124 24 51 25 54 3 37 -16 -13 -17 -12 -5
3 8 10 17 16 21 15 3 -1 19 8 35 20 16 13 24 23 19 23 -6 0 -16 -7 -23 -15 -7
-8 -17 -15 -23 -15 -29 0 51 43 107 56 91 23 158 13 260 -40 86 -44 157 -93
153 -105 -2 -8 257 -221 268 -221 4 0 -45 41 -107 91 -62 51 -122 101 -133
113 l-20 20 20 -15 c11 -9 69 -55 128 -104 63 -50 112 -84 117 -79 5 5 14 40
20 78 6 38 15 77 21 85 7 12 8 8 4 -14 -7 -34 7 -17 20 24 6 18 4 22 -6 16 -8
-5 -5 1 5 13 23 27 72 29 140 6 l48 -17 -62 -33 c-34 -18 -72 -41 -84 -51
l-21 -17 20 21 c11 12 45 36 75 52 30 17 50 31 43 31 -17 0 -83 -39 -116 -69
-35 -32 -52 -64 -61 -114 -4 -24 -11 -35 -18 -31 -7 4 -8 3 -4 -5 12 -19 26
-2 32 39 4 22 13 48 21 57 13 16 13 15 2 -7 -7 -13 -12 -51 -12 -82 1 -55 -7
-72 -23 -46 -4 7 -3 8 4 4 8 -5 12 1 12 15 0 17 -3 20 -11 12 -6 -6 -18 -9
-25 -6 -10 4 -14 -5 -15 -33 l-2 -39 -6 35 c-6 31 -8 24 -20 -51 -8 -47 -11
-92 -8 -100 3 -8 6 2 7 21 1 19 6 49 10 65 6 20 7 9 3 -31 l-5 -61 110 -47
c60 -25 113 -46 117 -46 3 0 -3 15 -15 33 l-22 32 24 -28 24 -28 45 20 c24 12
62 21 84 21 22 0 47 5 55 10 27 18 -102 -1 -144 -21 -42 -20 -42 -20 -67 24
-5 10 -14 15 -19 12 -5 -3 -12 0 -16 6 -4 8 -3 9 4 5 7 -4 12 -1 12 9 0 10 -7
15 -17 13 -10 -2 -17 3 -15 10 1 6 -2 12 -7 12 -5 0 -16 12 -25 28 -17 26 -17
27 1 6 37 -41 71 -55 174 -68 57 -8 122 -19 144 -25 46 -13 136 -76 132 -92
-1 -6 4 -14 12 -17 9 -3 11 0 6 9 -4 8 8 -1 28 -20 20 -19 35 -37 32 -39 -7
-7 15 -32 27 -32 6 0 4 8 -3 17 -7 10 38 -32 101 -93 239 -230 397 -312 586
-302 70 4 94 10 163 44 44 21 81 43 81 47 0 5 -3 6 -7 4 -5 -3 -9 9 -9 26 -3
71 -10 102 -21 102 -6 0 -15 4 -20 9 -4 5 -4 7 2 4 6 -4 10 21 11 65 l1 72
-13 -60 -13 -60 5 60 c3 33 12 78 19 100 32 99 22 169 -22 150 -10 -5 -22 -7
-26 -6 -5 1 -6 -3 -2 -9 5 -8 12 -7 23 2 15 12 16 11 3 -4 -7 -10 -17 -16 -21
-13 -4 3 -20 -12 -36 -33 l-27 -37 34 30 34 30 -29 -32 c-20 -22 -33 -30 -41
-23 -6 5 -17 5 -24 1 -10 -7 -9 -10 8 -16 20 -6 18 -9 -21 -42 -52 -43 -134
-83 -168 -82 -21 1 -20 2 8 9 38 9 54 20 29 20 -21 0 -21 -1 3 55 11 26 20 54
20 63 -1 9 -10 -7 -20 -37 -11 -30 -25 -60 -31 -65 -5 -6 0 12 12 39 15 35 22
72 23 121 1 77 14 79 18 4 1 -45 1 -45 5 -7 4 34 6 37 21 25 19 -15 -2 14 -53
71 -16 19 -24 31 -16 26 9 -5 8 1 -4 18 -9 14 -25 25 -35 24 -16 -1 -16 -3 -4
-23 13 -20 11 -24 -29 -61 -62 -57 -167 -117 -181 -103 -8 8 -6 9 9 4 18 -7
18 -6 6 9 -7 9 -17 15 -21 12 -5 -3 -12 0 -16 6 -5 8 -3 9 6 4 8 -5 11 -3 8 6
-3 8 -10 14 -15 14 -6 0 -15 4 -20 9 -5 5 -2 6 6 1 9 -5 12 -3 9 6 -3 8 -10
14 -15 14 -6 0 -15 4 -20 9 -5 5 -2 6 6 1 9 -5 12 -3 9 6 -3 8 -10 14 -15 14
-6 0 -15 4 -20 9 -5 5 -3 6 5 2 16 -9 15 -1 -3 35 -9 16 -20 27 -25 24 -5 -3
-16 8 -25 25 -19 38 -11 40 9 3 31 -57 15 -5 -23 72 -21 44 -46 104 -56 133
-9 29 -19 51 -21 49 -3 -2 6 -33 19 -68 38 -100 39 -106 21 -75 -18 32 -74
193 -73 210 0 6 7 -5 14 -24 17 -44 19 -19 3 27 -9 25 -9 41 -1 63 6 17 7 28
2 24 -5 -3 -9 3 -9 13 0 15 -2 16 -10 3 -6 -8 -8 -33 -5 -55 4 -38 4 -38 -10
10 -8 28 -18 91 -21 140 -5 81 -3 95 18 135 13 24 37 54 55 66 36 24 129 38
201 30 34 -4 40 -3 22 3 -22 8 -21 9 15 10 22 0 51 -2 65 -6 l25 -7 -30 -7
c-24 -5 -20 -7 20 -7 28 0 64 4 80 8 28 7 26 8 -15 9 -80 2 -76 18 7 25 165
14 351 54 451 97 l46 20 25 -27 c14 -15 21 -24 14 -20 -14 8 -17 -2 -32 -128
-12 -101 -8 -124 8 -44 l10 53 -5 -53 c-6 -70 2 -80 37 -46 29 28 39 51 17 38
-8 -4 -10 -3 -5 2 5 5 14 9 19 9 6 0 13 6 16 14 3 9 0 11 -9 6 -8 -5 -11 -4
-6 1 5 5 14 9 19 9 6 0 13 6 16 14 3 9 0 11 -9 6 -8 -5 -11 -4 -6 1 5 5 14 9
19 9 6 0 13 6 16 14 3 9 0 11 -8 6 -9 -5 -11 -4 -6 4 4 6 11 9 16 6 5 -3 20
14 34 38 29 49 32 62 14 51 -8 -4 -10 -3 -5 2 5 5 14 9 20 9 7 0 12 10 11 22
0 12 3 20 8 17 4 -3 13 7 20 21 11 24 13 25 19 8 11 -26 10 -111 0 -157 -5
-21 -6 -35 -1 -30 5 5 10 18 13 29 2 11 3 5 1 -12 -1 -18 2 -33 7 -33 6 0 7
-6 3 -12 -4 -7 7 0 24 16 32 30 44 54 20 40 -7 -4 -4 2 6 14 23 26 34 29 15 5
-11 -15 -10 -14 9 1 23 20 31 42 10 30 -8 -4 -10 -3 -5 2 5 5 14 9 19 9 6 0
13 6 16 14 3 9 0 11 -9 6 -8 -5 -11 -4 -6 1 5 5 14 9 20 9 16 0 77 153 76 190
l-1 30 -8 -30 -8 -30 -1 36 c-1 31 3 37 34 52 20 9 38 17 41 17 18 0 -37 -261
-75 -359 -25 -61 -26 -72 -6 -45 14 18 14 18 8 -3 -3 -13 -11 -23 -18 -23 -7
0 -16 -7 -19 -16 -8 -22 -8 -26 4 -19 6 3 7 -1 4 -9 -3 -9 -11 -14 -17 -13 -7
1 -12 -11 -13 -28 0 -16 -6 -40 -12 -52 -19 -35 -25 -27 -7 8 9 17 14 33 12
35 -4 5 -77 -129 -77 -141 0 -3 5 -3 12 1 7 4 8 3 4 -5 -4 -6 -11 -9 -16 -6
-4 3 -20 -15 -34 -39 -29 -49 -32 -61 -14 -50 7 4 8 3 4 -5 -4 -6 -11 -9 -16
-6 -4 3 -27 -25 -50 -62 -38 -59 -41 -68 -26 -78 8 -7 12 -16 8 -21 -11 -14
27 16 110 84 77 63 238 228 238 243 0 5 -16 -8 -36 -29 -31 -32 -30 -30 6 15
23 29 47 51 52 50 6 -1 13 4 16 12 3 8 0 11 -7 7 -17 -11 -13 0 6 15 14 12 16
12 9 -1 -4 -8 6 1 23 20 34 37 42 61 14 39 -16 -13 -17 -12 -4 3 7 10 17 15
22 13 11 -7 42 53 34 66 -4 5 -1 8 6 7 6 -2 14 3 17 11 3 9 0 11 -9 6 -8 -5
-11 -4 -6 1 5 5 14 9 20 9 7 0 12 10 11 22 0 12 4 21 10 20 6 -1 11 8 10 20 0
12 4 21 10 20 6 -1 11 8 10 20 0 12 3 20 7 17 5 -3 15 11 23 29 17 43 56 199
55 224 0 10 -9 -13 -19 -52 -24 -95 -24 -72 0 45 11 52 33 167 50 255 38 196
39 202 51 184 6 -11 9 -11 9 -1 0 7 -11 17 -25 22 -13 5 -113 61 -222 123
-313 181 -495 268 -678 323 -107 33 -237 55 -306 53 l-55 -2 5 -31 5 -31 7 30
c7 30 7 30 8 3 1 -21 7 -28 34 -33 80 -18 185 -57 212 -80 l30 -26 -30 18 -30
18 27 -33 c31 -37 43 -85 33 -134 -5 -24 -4 -29 4 -18 6 8 11 10 11 4 0 -6 -8
-18 -17 -25 -11 -10 -14 -10 -9 -1 10 16 4 15 -30 -4 -26 -14 -26 -15 -5 -10
18 4 21 2 12 -7 -7 -7 -39 -12 -74 -12 -55 0 -70 5 -134 44 -40 24 -71 47 -68
51 3 5 0 12 -6 16 -8 4 -9 3 -5 -4 13 -22 -9 -12 -44 19 l-35 31 33 -22 c59
-40 33 -12 -39 40 -39 29 -69 47 -65 42 3 -6 2 -12 -4 -14 -6 -2 -6 -35 2 -96
6 -50 8 -95 5 -99 -4 -3 -40 2 -79 11 -268 65 -420 86 -674 95 l-201 7 -74 36
c-63 31 -194 128 -174 128 4 0 27 -18 52 -40 48 -42 174 -110 202 -110 9 0
-10 11 -41 24 -32 13 -79 38 -106 55 -56 36 -178 159 -211 214 -12 20 -27 35
-31 32 -5 -3 -12 0 -16 6 -5 8 -3 9 6 4 8 -5 11 -3 8 6 -3 8 -10 13 -15 12 -5
-1 -9 8 -9 20 1 12 -4 22 -11 22 -6 0 -15 4 -20 9 -5 5 -3 6 5 2 19 -11 15 3
-23 79 -19 39 -40 70 -47 70 -6 0 -13 7 -15 15 -4 13 -3 13 6 0 7 -10 11 -11
11 -3 0 20 -53 122 -61 117 -4 -2 -11 1 -15 7 -5 8 -3 9 5 4 9 -5 12 -2 9 11
-2 11 -10 19 -17 19 -8 0 -16 7 -18 15 -4 13 -3 13 6 0 19 -27 12 0 -14 51
-14 27 -30 47 -35 44 -5 -3 -12 0 -16 6 -4 8 -3 9 4 5 7 -4 12 -2 12 3 0 6 -9
11 -20 11 -11 0 -20 -6 -20 -12 0 -9 -4 -8 -10 2 -5 8 -10 12 -10 8z m7 -65
c-3 -10 -5 -4 -5 12 0 17 2 24 5 18 2 -7 2 -21 0 -30z m-12 -250 c0 -125 -3
-213 -6 -197 -13 58 -8 424 5 424 0 0 1 -102 1 -227z m-515 102 c35 -36 62
-65 59 -65 -2 0 -34 29 -69 65 -35 36 -62 65 -59 65 2 0 34 -29 69 -65z m688
-30 c-3 -3 -9 2 -12 12 -6 14 -5 15 5 6 7 -7 10 -15 7 -18z m-755 -35 c4 -30
3 -38 -3 -25 -8 19 -14 83 -6 74 2 -2 6 -24 9 -49z m167 -45 c19 -19 32 -35
29 -35 -3 0 -20 16 -39 35 -19 19 -32 35 -29 35 3 0 20 -16 39 -35z m640 -30
c0 -5 -5 -3 -10 5 -5 8 -10 20 -10 25 0 6 5 3 10 -5 5 -8 10 -19 10 -25z
m-787 -20 c5 -28 4 -34 -3 -20 -8 19 -14 73 -6 64 2 -2 6 -22 9 -44z m28 -100
c6 -20 6 -26 -1 -19 -5 5 -12 25 -15 44 -5 36 -1 29 16 -25z m28 -110 c0 -11
-7 0 -15 25 -17 56 -17 64 1 25 8 -16 14 -39 14 -50z m524 -10 c5 -28 4 -34
-3 -20 -8 19 -14 73 -6 64 2 -2 6 -22 9 -44z m373 -37 l29 -33 -32 29 c-31 28
-38 36 -30 36 2 0 16 -15 33 -32z m-874 -33 c3 -13 1 -22 -3 -19 -9 5 -13 44
-5 44 2 0 6 -11 8 -25z m518 15 c0 -5 -2 -10 -4 -10 -3 0 -8 5 -11 10 -3 6 -1
10 4 10 6 0 11 -4 11 -10z m1690 -186 c0 -3 -13 4 -30 16 -16 12 -30 24 -30
26 0 3 14 -4 30 -16 17 -12 30 -24 30 -26z m427 -66 c-2 -13 -4 -5 -4 17 -1
22 1 32 4 23 2 -10 2 -28 0 -40z m-3249 -272 c3 -5 -16 6 -42 24 -26 19 -50
39 -54 44 -3 5 16 -6 42 -24 26 -19 50 -39 54 -44z m2331 -11 c65 -23 241
-107 241 -115 0 -4 -15 -10 -32 -12 -18 -3 -94 -18 -169 -34 l-137 -28 -51 23
c-80 38 -227 139 -210 146 90 33 289 45 358 20z m1531 -46 c-44 -34 -60 -41
-60 -25 0 34 13 46 49 46 l36 0 -25 -21z m-21 -323 c-10 -9 -89 -46 -89 -41 0
6 72 44 84 45 5 0 7 -2 5 -4z m-4 -78 c-9 -78 -33 -187 -46 -208 -9 -12 -10
-12 -5 3 14 44 35 147 41 205 4 34 9 62 12 62 3 0 2 -28 -2 -62z m-103 -90
c-8 -8 -9 -4 -5 13 4 13 8 18 11 10 2 -7 -1 -18 -6 -23z m340 -10 c-8 -8 -9
-4 -5 13 4 13 8 18 11 10 2 -7 -1 -18 -6 -23z m-518 -10 c8 -33 5 -58 -3 -28
-4 14 -13 24 -19 23 -6 -2 -9 4 -6 12 9 22 21 18 28 -7z m169 -13 c-3 -9 -8
-14 -10 -11 -3 3 -2 9 2 15 9 16 15 13 8 -4z m347 -3 c0 -5 -7 -17 -15 -28
-14 -18 -14 -17 -4 9 12 27 19 34 19 19z m-503 -119 c-2 -16 -4 -3 -4 27 0 30
2 43 4 28 2 -16 2 -40 0 -55z m216 -3 c-3 -11 -10 -23 -16 -27 -5 -3 -8 -2 -5
3 3 5 8 17 11 27 9 24 16 22 10 -3z m-476 -77 c-2 -16 -4 -3 -4 27 0 30 2 43
4 28 2 -16 2 -40 0 -55z m456 22 c-3 -9 -8 -14 -10 -11 -3 3 -2 9 2 15 9 16
15 13 8 -4z m-423 -128 c0 -2 -10 -12 -22 -23 l-23 -19 19 23 c18 21 26 27 26
19z m-2997 -82 c-3 -9 -8 -14 -10 -11 -3 3 -2 9 2 15 9 16 15 13 8 -4z m-46
-127 c-3 -8 -6 -5 -6 6 -1 11 2 17 5 13 3 -3 4 -12 1 -19z m3377 -66 c-44 -43
-100 -93 -125 -111 -34 -26 -32 -22 11 15 30 27 84 77 120 111 36 34 67 63 70
62 3 0 -31 -35 -76 -77z m-160 -77 c-9 -14 -18 -25 -21 -25 -5 0 5 18 20 38
17 22 18 13 1 -13z m-2762 -17 c-8 -8 -9 -4 -5 13 4 13 8 18 11 10 2 -7 -1
-18 -6 -23z m2738 -22 c0 -2 -8 -10 -17 -17 -16 -13 -17 -12 -4 4 13 16 21 21
21 13z m-2691 -45 c-6 -18 -9 -59 -7 -92 2 -32 1 -54 -4 -47 -11 19 -10 110 3
147 6 18 13 30 15 28 2 -2 -1 -18 -7 -36z m105 -6 c5 -23 4 -27 -4 -15 -9 11
-10 3 -6 -35 4 -42 4 -45 -5 -20 -5 17 -7 47 -3 68 7 44 9 44 18 2z m296 -28
c0 -38 -17 -104 -29 -111 -5 -3 -2 13 6 37 8 23 13 58 11 79 -2 20 0 34 4 32
5 -3 8 -20 8 -37z m-283 -39 c-3 -7 -5 -2 -5 12 0 14 2 19 5 13 2 -7 2 -19 0
-25z m28 -53 c13 -21 14 -26 3 -18 -8 7 -17 11 -19 9 -2 -2 -5 7 -5 20 -1 14
-1 24 0 22 1 -2 10 -16 21 -33z m218 -50 c-3 -9 -8 -14 -10 -11 -3 3 -2 9 2
15 9 16 15 13 8 -4z m-742 -12 c13 -16 12 -17 -3 -4 -10 7 -18 15 -18 17 0 8
8 3 21 -13z m403 -9 c3 -8 2 -12 -4 -9 -6 3 -10 10 -10 16 0 14 7 11 14 -7z
m581 -43 c-4 -17 -10 -33 -14 -36 -5 -2 -3 13 2 35 13 46 22 46 12 1z m283 14
c6 -14 10 -25 8 -25 -2 0 -11 11 -20 25 -9 14 -13 25 -8 25 5 0 14 -11 20 -25z
m-856 0 c3 0 9 -3 13 -7 4 -3 0 -5 -9 -4 -9 1 -22 8 -29 16 -10 10 -9 11 3 4
8 -5 18 -9 22 -9z m33 -37 c4 -3 2 -9 -3 -12 -5 -3 -15 1 -21 8 -10 11 -9 14
3 12 9 -1 18 -5 21 -8z m42 -63 c0 -12 -6 -10 -23 6 -13 12 -21 26 -18 31 8
12 41 -18 41 -37z m136 -148 c-7 -12 -110 90 -110 109 0 9 25 -10 58 -42 32
-32 55 -62 52 -67z m-392 66 c8 -10 9 -14 2 -10 -6 4 -14 3 -17 -1 -3 -5 6
-14 20 -21 34 -15 39 -14 23 6 -8 9 5 4 28 -12 24 -15 40 -32 36 -38 -4 -6 0
-8 9 -4 18 6 56 -17 42 -26 -6 -3 -49 16 -98 42 -62 34 -83 50 -71 55 9 3 13
10 10 16 -10 16 1 11 16 -7z m-30 -50 c13 -16 12 -17 -3 -4 -17 13 -22 21 -14
21 2 0 10 -8 17 -17z m219 -222 c14 -13 -2 -2 -35 26 -33 28 -87 80 -120 115
-41 43 -31 35 35 -27 52 -49 106 -100 120 -114z m295 131 c-3 -3 1 -12 7 -21
7 -9 -9 4 -35 28 -25 24 -44 48 -40 54 3 5 20 -6 39 -24 19 -18 32 -35 29 -37z
m-285 6 c0 -6 3 -9 6 -5 8 8 64 -20 64 -32 0 -4 6 -8 13 -8 21 0 217 -115 211
-124 -6 -11 -44 8 -44 21 0 6 -4 9 -8 7 -13 -3 -112 53 -112 64 0 6 -4 7 -10
4 -5 -3 -10 -1 -10 6 0 7 -3 10 -6 6 -9 -9 -64 21 -64 35 0 6 -3 9 -6 5 -10
-9 -86 32 -79 43 8 13 45 -6 45 -22z m490 -3 c13 -14 21 -25 18 -25 -2 0 -15
11 -28 25 -13 14 -21 25 -18 25 2 0 15 -11 28 -25z m123 -115 c-2 -2 -25 18
-51 45 l-47 49 51 -44 c27 -25 49 -47 47 -50z m-373 -216 c0 -7 -198 146 -213
164 -6 9 39 -24 101 -72 61 -48 112 -90 112 -92z m390 21 c19 -19 32 -35 29
-35 -3 0 -20 16 -39 35 -19 19 -32 35 -29 35 3 0 20 -16 39 -35z m150 -5 c6
-11 8 -20 6 -20 -3 0 -10 9 -16 20 -6 11 -8 20 -6 20 3 0 10 -9 16 -20z m-443
-93 c4 -6 -14 6 -40 27 -26 21 -47 40 -47 43 0 7 78 -56 87 -70z m143 53 c6
-11 8 -20 6 -20 -3 0 -10 9 -16 20 -6 11 -8 20 -6 20 3 0 10 -9 16 -20z m330
-20 c6 -11 8 -20 6 -20 -3 0 -10 9 -16 20 -6 11 -8 20 -6 20 3 0 10 -9 16 -20z
m-300 -40 c6 -11 8 -20 6 -20 -3 0 -10 9 -16 20 -6 11 -8 20 -6 20 3 0 10 -9
16 -20z m-70 -87 c0 -8 -9 0 -50 45 l-45 47 48 -45 c26 -24 47 -45 47 -47z
m290 47 c6 -11 8 -20 6 -20 -3 0 -10 9 -16 20 -6 11 -8 20 -6 20 3 0 10 -9 16
-20z m-250 -110 c6 -11 8 -20 6 -20 -3 0 -10 9 -16 20 -6 11 -8 20 -6 20 3 0
10 -9 16 -20z m39 -85 c0 -5 -6 1 -14 15 -8 14 -14 30 -14 35 0 6 6 -1 14 -15
8 -14 14 -29 14 -35z m299 20 c-3 -3 -9 2 -12 12 -6 14 -5 15 5 6 7 -7 10 -15
7 -18z m-280 -60 c-3 -3 -9 2 -12 12 -6 14 -5 15 5 6 7 -7 10 -15 7 -18z"/>
<path d="M2010 1776 c0 -2 8 -10 18 -17 15 -13 16 -12 3 4 -13 16 -21 21 -21
13z"/>
<path d="M2125 1650 c27 -27 51 -50 54 -50 3 0 -17 23 -44 50 -27 28 -51 50
-54 50 -3 0 17 -22 44 -50z"/>
<path d="M1846 1605 c10 -8 23 -15 28 -15 6 0 1 7 -10 15 -10 8 -23 15 -28 15
-6 0 -1 -7 10 -15z"/>
<path d="M2210 1577 c0 -2 15 -16 33 -33 l32 -29 -29 33 c-28 30 -36 37 -36
29z"/>
<path d="M1890 4166 c0 -4 192 -135 220 -151 36 -20 -11 17 -97 73 -50 34 -94
66 -98 72 -6 10 -25 14 -25 6z"/>
<path d="M2130 4006 c0 -7 90 -59 95 -54 2 2 -18 16 -46 31 -27 16 -49 26 -49
23z"/>
<path d="M4101 3966 c2 -2 40 -6 84 -9 47 -3 68 -2 50 3 -30 8 -142 13 -134 6z"/>
<path d="M4271 3946 c2 -2 22 -6 44 -9 28 -5 34 -4 20 3 -19 8 -73 14 -64 6z"/>
<path d="M4380 3920 c34 -11 60 -11 35 0 -11 5 -29 8 -40 8 -16 0 -15 -2 5 -8z"/>
<path d="M4450 3900 c8 -5 22 -10 30 -10 13 0 13 1 0 10 -8 5 -22 10 -30 10
-13 0 -13 -1 0 -10z"/>
<path d="M4510 3880 c8 -5 20 -10 25 -10 6 0 3 5 -5 10 -8 5 -19 10 -25 10 -5
0 -3 -5 5 -10z"/>
<path d="M4098 3873 c7 -3 16 -2 19 1 4 3 -2 6 -13 5 -11 0 -14 -3 -6 -6z"/>
<path d="M660 3860 c14 -4 34 -8 45 -8 16 0 15 2 -5 8 -14 4 -34 8 -45 8 -16
0 -15 -2 5 -8z"/>
<path d="M1230 3860 c-41 -4 11 -5 115 -2 105 3 192 6 194 8 7 6 -225 1 -309
-6z"/>
<path d="M4145 3860 c11 -5 27 -9 35 -9 9 0 8 4 -5 9 -11 5 -27 9 -35 9 -9 0
-8 -4 5 -9z"/>
<path d="M4585 3850 c53 -24 70 -24 25 0 -19 11 -42 19 -50 19 -8 0 3 -9 25
-19z"/>
<path d="M756 3839 c38 -9 200 -8 289 0 45 4 2 7 -124 6 -106 0 -180 -3 -165
-6z"/>
<path d="M4215 3840 c11 -5 27 -9 35 -9 9 0 8 4 -5 9 -11 5 -27 9 -35 9 -9 0
-8 -4 5 -9z"/>
<path d="M4275 3820 c3 -5 11 -10 16 -10 6 0 7 5 4 10 -3 6 -11 10 -16 10 -6
0 -7 -4 -4 -10z"/>
<path d="M4680 3810 c19 -11 40 -19 45 -19 6 0 -6 8 -25 19 -19 11 -39 19 -45
19 -5 0 6 -8 25 -19z"/>
<path d="M4745 3780 c3 -5 11 -10 16 -10 6 0 7 5 4 10 -3 6 -11 10 -16 10 -6
0 -7 -4 -4 -10z"/>
<path d="M3865 3750 c2 -19 7 -61 11 -92 l6 -58 -33 5 c-29 4 -30 3 -9 -4 51
-18 53 -17 45 60 -4 39 -11 83 -16 97 -8 24 -8 23 -4 -8z"/>
<path d="M4780 3766 c0 -3 32 -22 70 -41 39 -19 70 -33 70 -30 0 2 -28 19 -62
37 -79 41 -78 41 -78 34z"/>
<path d="M2971 3706 c2 -2 96 -5 209 -8 113 -2 180 -1 150 3 -56 7 -367 12
-359 5z"/>
<path d="M3401 3686 c2 -2 31 -6 64 -9 39 -4 50 -3 30 2 -31 9 -102 14 -94 7z"/>
<path d="M4930 3685 c0 -2 15 -12 33 -20 l32 -16 -25 20 c-24 20 -40 26 -40
16z"/>
<path d="M3560 3660 c14 -4 36 -8 50 -8 l25 0 -25 8 c-14 4 -36 8 -50 8 l-25
0 25 -8z"/>
<path d="M4070 3667 c0 -7 115 -77 126 -77 5 0 -7 10 -26 21 -19 12 -50 30
-67 41 -18 11 -33 17 -33 15z"/>
<path d="M3660 3640 c14 -4 34 -8 45 -8 16 0 15 2 -5 8 -14 4 -34 8 -45 8 -16
0 -15 -2 5 -8z"/>
<path d="M5000 3646 c0 -3 14 -12 30 -21 17 -9 30 -13 30 -11 0 3 -13 12 -30
21 -16 9 -30 13 -30 11z"/>
<path d="M3750 3620 c14 -4 34 -8 45 -8 16 0 15 2 -5 8 -14 4 -34 8 -45 8 -16
0 -15 -2 5 -8z"/>
<path d="M5070 3606 c0 -3 14 -12 30 -21 17 -9 30 -13 30 -11 0 3 -13 12 -30
21 -16 9 -30 13 -30 11z"/>
<path d="M840 3589 c0 -5 5 -7 10 -4 6 3 10 8 10 11 0 2 -4 4 -10 4 -5 0 -10
-5 -10 -11z"/>
<path d="M4228 3583 c12 -2 32 -2 45 0 12 2 2 4 -23 4 -25 0 -35 -2 -22 -4z"/>
<path d="M5140 3566 c0 -3 57 -37 173 -103 4 -2 7 -2 7 1 0 3 -57 37 -172 103
-5 2 -8 2 -8 -1z"/>
<path d="M5326 3374 c-4 -20 -5 -38 -3 -40 3 -3 8 11 11 32 4 20 5 38 3 40 -3
3 -8 -11 -11 -32z"/>
<path d="M5306 3279 c-4 -23 -5 -44 -2 -46 2 -2 7 14 11 37 4 23 5 43 2 46 -2
3 -7 -14 -11 -37z"/>
<path d="M1317 3234 c3 -8 17 -17 32 -21 14 -3 43 -19 65 -35 21 -15 42 -25
47 -22 5 3 9 0 9 -6 0 -6 5 -8 12 -4 6 4 8 3 5 -3 -4 -6 0 -13 8 -17 8 -3 17
-1 20 4 3 5 -18 21 -47 36 -29 15 -65 35 -79 45 -15 10 -38 23 -52 28 -21 8
-25 7 -20 -5z"/>
<path d="M5285 3175 c-3 -26 -4 -49 -2 -52 3 -3 9 16 12 42 4 25 5 48 2 51 -2
3 -8 -16 -12 -41z"/>
<path d="M1334 3201 c6 -9 -96 -55 -204 -93 -95 -33 -214 -58 -250 -53 -28 4
-31 3 -15 -5 15 -8 10 -9 -25 -5 -29 3 -40 2 -31 -4 23 -15 -143 -24 -327 -18
-106 3 -211 13 -286 26 -94 17 -121 19 -127 9 -4 -6 -6 -15 -4 -19 5 -7 199
-89 212 -89 4 0 1 5 -7 11 -12 9 -12 10 3 5 10 -3 24 -6 30 -6 7 0 6 -5 -3
-11 -12 -9 -12 -10 3 -5 23 7 73 -4 58 -13 -6 -4 4 -8 22 -8 45 -2 263 -49
249 -54 -7 -2 12 -4 41 -5 28 0 129 -6 222 -12 217 -15 389 -2 568 44 34 9 64
11 73 6 16 -9 -5 -16 -193 -63 -51 -13 -93 -26 -93 -29 0 -7 134 -34 276 -55
121 -18 200 -18 279 -1 102 23 275 71 275 76 0 3 -55 25 -123 50 -109 40 -130
45 -202 44 -133 -3 -186 -7 -172 -16 9 -6 8 -8 -3 -8 -8 0 -21 4 -28 8 -8 5
22 19 80 37 51 16 96 28 101 27 4 -1 7 2 7 8 0 5 -7 10 -16 10 -16 0 -219 116
-301 171 -45 31 -98 55 -89 40z m-1163 -190 c46 -22 80 -40 74 -40 -11 0 -173
77 -164 78 3 1 44 -17 90 -38z"/>
<path d="M1254 3175 c-18 -14 -18 -14 4 -8 12 3 22 9 22 14 0 12 -3 11 -26 -6z"/>
<path d="M1130 3130 c-25 -10 -41 -19 -37 -19 12 -1 107 31 107 35 0 8 -27 2
-70 -16z"/>
<path d="M1522 3122 c-14 -4 -1 -14 93 -66 36 -20 43 -22 25 -7 -35 29 -14 26
63 -9 37 -16 70 -30 74 -29 8 0 -155 79 -164 79 -2 0 -1 -5 3 -12 5 -8 2 -9
-10 -5 -10 4 -21 7 -24 7 -4 0 -1 4 6 9 11 7 10 9 -3 14 -10 5 -14 3 -9 -4 4
-7 1 -10 -7 -7 -8 3 -13 10 -12 16 3 12 -17 21 -35 14z"/>
<path d="M1035 3100 l-20 -9 20 0 c11 0 27 4 35 9 13 9 13 10 0 9 -8 0 -24 -4
-35 -9z"/>
<path d="M5266 3069 c-4 -23 -5 -44 -2 -46 2 -2 7 14 11 37 4 23 5 43 2 46 -2
3 -7 -14 -11 -37z"/>
<path d="M965 3089 c15 -7 10 -8 -20 -4 -34 4 -36 3 -16 -6 14 -5 39 -7 55 -3
28 6 29 8 11 15 -29 11 -55 10 -30 -2z"/>
<path d="M898 3068 c5 -5 16 -8 23 -6 8 3 3 7 -10 11 -17 4 -21 3 -13 -5z"/>
<path d="M258 3053 c6 -2 18 -2 25 0 6 3 1 5 -13 5 -14 0 -19 -2 -12 -5z"/>
<path d="M700 3046 c0 -2 7 -7 16 -10 8 -3 12 -2 9 4 -6 10 -25 14 -25 6z"/>
<path d="M453 3033 c37 -2 96 -2 130 0 34 2 4 3 -68 3 -72 0 -99 -1 -62 -3z"/>
<path d="M1684 3015 c11 -8 24 -15 30 -15 5 0 1 7 -10 15 -10 8 -23 14 -29 14
-5 0 -1 -6 9 -14z"/>
<path d="M1800 3000 c8 -5 20 -10 25 -10 6 0 3 5 -5 10 -8 5 -19 10 -25 10 -5
0 -3 -5 5 -10z"/>
<path d="M1850 2980 c8 -5 20 -10 25 -10 6 0 3 5 -5 10 -8 5 -19 10 -25 10 -5
0 -3 -5 5 -10z"/>
<path d="M1900 2960 c8 -5 20 -10 25 -10 6 0 3 5 -5 10 -8 5 -19 10 -25 10 -5
0 -3 -5 5 -10z"/>
<path d="M1672 2946 c-26 -9 -15 -11 72 -11 107 0 115 9 15 17 -30 2 -70 0
-87 -6z"/>
<path d="M1950 2940 c8 -5 20 -10 25 -10 6 0 3 5 -5 10 -8 5 -19 10 -25 10 -5
0 -3 -5 5 -10z"/>
<path d="M1608 2923 c7 -3 16 -2 19 1 4 3 -2 6 -13 5 -11 0 -14 -3 -6 -6z"/>
<path d="M1875 2920 c27 -12 43 -12 25 0 -8 5 -22 9 -30 9 -10 0 -8 -3 5 -9z"/>
<path d="M2025 2911 c22 -11 47 -20 55 -20 17 0 -34 23 -71 33 -13 3 -6 -3 16
-13z"/>
<path d="M425 2900 c11 -5 27 -9 35 -9 9 0 8 4 -5 9 -11 5 -27 9 -35 9 -9 0
-8 -4 5 -9z"/>
<path d="M1945 2896 c17 -7 41 -16 55 -20 20 -5 19 -3 -5 8 -16 7 -41 16 -55
20 -20 5 -19 3 5 -8z"/>
<path d="M2115 2880 c11 -5 27 -9 35 -9 9 0 8 4 -5 9 -11 5 -27 9 -35 9 -9 0
-8 -4 5 -9z"/>
<path d="M1428 2873 c7 -3 16 -2 19 1 4 3 -2 6 -13 5 -11 0 -14 -3 -6 -6z"/>
<path d="M1335 2859 c-22 -5 -78 -13 -125 -18 l-85 -9 70 0 c61 0 192 22 204
34 6 6 -18 3 -64 -7z"/>
<path d="M2040 2860 c8 -5 22 -9 30 -9 10 0 8 3 -5 9 -27 12 -43 12 -25 0z"/>
<path d="M2185 2860 c11 -5 31 -8 45 -8 l25 0 -25 8 c-14 4 -34 8 -45 8 l-20
1 20 -9z"/>
<path d="M668 2853 c6 -2 18 -2 25 0 6 3 1 5 -13 5 -14 0 -19 -2 -12 -5z"/>
<path d="M775 2840 c51 -8 212 -13 204 -6 -2 2 -60 6 -129 8 -77 3 -106 2 -75
-2z"/>
<path d="M2280 2840 c14 -4 36 -8 50 -8 l25 0 -25 8 c-14 4 -36 8 -50 8 l-25
0 25 -8z"/>
<path d="M2395 2820 c17 -4 41 -8 55 -8 22 0 22 1 -5 8 -16 4 -41 8 -55 8 -22
0 -22 -1 5 -8z"/>
<path d="M2030 2800 c-20 -6 -21 -8 -5 -8 11 0 29 3 40 8 25 11 -1 11 -35 0z"/>
<path d="M2495 2800 c3 -5 23 -10 43 -9 33 1 34 2 12 9 -36 12 -62 12 -55 0z"/>
<path d="M1280 2780 c14 -4 34 -8 45 -8 16 0 15 2 -5 8 -14 4 -34 8 -45 8 -16
0 -15 -2 5 -8z"/>
<path d="M1945 2780 l-20 -9 20 0 c11 0 29 4 40 9 l20 9 -20 0 c-11 0 -29 -4
-40 -9z"/>
<path d="M2315 2780 l-70 -6 60 -1 c33 -1 87 3 120 7 l60 7 -50 0 c-27 0 -81
-3 -120 -7z"/>
<path d="M1380 2760 c14 -4 36 -8 50 -8 22 0 22 1 -5 8 -16 4 -39 8 -50 8 -16
0 -15 -2 5 -8z"/>
<path d="M1875 2760 c-13 -5 -14 -9 -5 -9 8 0 24 4 35 9 13 5 14 9 5 9 -8 0
-24 -4 -35 -9z"/>
<path d="M2065 2759 c-24 -4 -5 -5 50 -2 50 3 92 7 94 9 7 7 -102 2 -144 -7z"/>
<path d="M1495 2741 c31 -9 102 -14 94 -7 -2 2 -31 6 -64 9 -39 4 -50 3 -30
-2z"/>
<path d="M1790 2740 c-20 -6 -21 -8 -5 -8 11 0 31 4 45 8 20 6 21 8 5 8 -11 0
-31 -4 -45 -8z"/>
<path d="M1935 2740 c-27 -7 -27 -8 -5 -8 14 0 39 4 55 8 27 7 27 8 5 8 -14 0
-38 -4 -55 -8z"/>
<path d="M4380 2725 c-29 -16 -19 -20 11 -4 15 8 25 7 37 -3 15 -12 16 -11 3
5 -16 20 -19 20 -51 2z"/>
<path d="M1653 2723 c20 -2 54 -2 75 0 20 2 3 4 -38 4 -41 0 -58 -2 -37 -4z"/>
<path d="M1845 2720 c-25 -11 1 -11 35 0 20 6 21 8 5 8 -11 0 -29 -3 -40 -8z"/>
<path d="M1785 2700 c-13 -6 -15 -9 -5 -9 8 0 22 4 30 9 18 12 2 12 -25 0z"/>
<path d="M4315 2700 c-13 -6 -15 -9 -5 -9 8 0 22 4 30 9 18 12 2 12 -25 0z"/>
<path d="M1448 2683 c6 -2 18 -2 25 0 6 3 1 5 -13 5 -14 0 -19 -2 -12 -5z"/>
<path d="M1680 2655 c-36 -19 -60 -34 -55 -34 6 0 39 15 75 34 36 19 61 34 55
34 -5 0 -39 -15 -75 -34z"/>
<path d="M4245 2680 l-20 -9 20 0 c11 0 27 4 35 9 13 9 13 10 0 9 -8 0 -24 -4
-35 -9z"/>
<path d="M4188 2665 c-2 -3 -42 -11 -89 -20 l-84 -14 78 5 c43 3 90 12 105 20
16 8 20 14 11 14 -9 0 -18 -2 -21 -5z"/>
<path d="M3943 2623 c9 -2 25 -2 35 0 9 3 1 5 -18 5 -19 0 -27 -2 -17 -5z"/>
<path d="M3670 2590 c21 -7 22 -8 5 -9 -15 -1 -17 -3 -7 -10 8 -5 24 -4 37 3
21 10 22 12 7 18 -9 4 -28 6 -42 6 l-25 0 25 -8z"/>
<path d="M4965 2400 c-3 -5 -1 -10 4 -10 6 0 11 5 11 10 0 6 -2 10 -4 10 -3 0
-8 -4 -11 -10z"/>
<path d="M3465 2351 c3 -18 5 -43 5 -55 1 -17 2 -18 10 -5 6 10 4 29 -6 55
-15 38 -15 39 -9 5z"/>
<path d="M2118 2293 c12 -2 30 -2 40 0 9 3 -1 5 -23 4 -22 0 -30 -2 -17 -4z"/>
<path d="M2025 2280 c-25 -11 1 -11 35 0 20 6 21 8 5 8 -11 0 -29 -3 -40 -8z"/>
<path d="M2180 2280 c-11 -7 -5 -8 19 -3 21 4 32 2 28 -3 -3 -6 15 -17 41 -27
26 -9 72 -35 102 -58 30 -23 46 -32 35 -19 -11 12 -20 25 -20 29 0 3 -6 5 -13
3 -8 -2 -11 1 -7 8 4 6 -22 24 -69 45 -80 37 -93 40 -116 25z"/>
<path d="M2080 2260 c-11 -8 -7 -9 15 -4 37 8 45 14 19 14 -10 0 -26 -5 -34
-10z"/>
<path d="M2414 2181 c7 -11 46 -35 46 -28 0 3 -12 12 -26 22 -15 9 -23 12 -20
6z"/>
<path d="M2138 2155 c-20 -13 -39 -29 -43 -35 -3 -6 10 1 31 15 38 26 91 33
123 16 9 -5 23 -6 30 -2 16 10 0 17 -60 25 -36 5 -51 1 -81 -19z"/>
<path d="M2815 2160 c-8 -13 5 -13 25 0 13 8 13 10 -2 10 -9 0 -20 -4 -23 -10z"/>
<path d="M2895 2160 c11 -5 27 -9 35 -9 9 0 8 4 -5 9 -11 5 -27 9 -35 9 -9 0
-8 -4 5 -9z"/>
<path d="M2310 2140 c8 -5 20 -10 25 -10 6 0 3 5 -5 10 -8 5 -19 10 -25 10 -5
0 -3 -5 5 -10z"/>
<path d="M2360 2120 c8 -5 20 -10 25 -10 6 0 3 5 -5 10 -8 5 -19 10 -25 10 -5
0 -3 -5 5 -10z"/>
<path d="M2400 2106 c0 -2 7 -7 16 -10 8 -3 12 -2 9 4 -6 10 -25 14 -25 6z"/>
<path d="M2771 2045 c0 -16 -4 -41 -6 -55 l-6 -25 11 25 c6 13 9 38 7 55 l-4
30 -2 -30z"/>
<path d="M2420 2056 c0 -2 7 -7 16 -10 8 -3 12 -2 9 4 -6 10 -25 14 -25 6z"/>
<path d="M2120 1885 c0 -7 61 -37 66 -33 2 3 -12 12 -31 21 -19 9 -35 15 -35
12z"/>
<path d="M2167 1790 c29 -30 54 -52 56 -50 1 3 -22 27 -53 55 l-55 49 52 -54z"/>
<path d="M3926 1761 c-15 -15 -56 -45 -92 -66 -77 -45 -86 -58 -12 -18 46 25
152 112 137 113 -3 0 -18 -13 -33 -29z"/>
<path d="M2290 1724 c0 -8 63 -35 76 -32 8 2 -5 10 -30 19 -25 9 -46 15 -46
13z"/>
<path d="M2945 1720 c19 -8 83 -14 74 -6 -2 2 -24 6 -49 9 -30 4 -38 3 -25 -3z"/>
<path d="M4290 1716 c0 -2 7 -9 15 -16 9 -7 15 -8 15 -2 0 5 -7 12 -15 16 -8
3 -15 4 -15 2z"/>
<path d="M2760 1690 c19 -11 40 -19 45 -19 6 0 -6 8 -25 19 -19 11 -39 19 -45
19 -5 0 6 -8 25 -19z"/>
<path d="M3068 1703 c12 -2 30 -2 40 0 9 3 -1 5 -23 4 -22 0 -30 -2 -17 -4z"/>
<path d="M3179 1682 c11 -8 11 -10 0 -15 -8 -4 -2 -4 12 -1 16 3 30 1 34 -6 5
-9 1 -10 -16 -5 -18 5 -21 4 -9 -4 8 -6 24 -8 35 -5 17 4 18 3 5 -6 -13 -10
-12 -11 3 -6 12 4 16 2 11 -6 -4 -7 -3 -8 4 -4 15 9 38 -4 25 -13 -6 -3 4 -17
21 -30 l31 -25 -23 25 c-12 14 -20 28 -16 31 7 8 -74 63 -106 72 -17 5 -21 4
-11 -2z"/>
<path d="M3090 1670 c-30 -4 -74 -17 -97 -28 -23 -12 -50 -19 -60 -16 -15 5
-16 4 -3 -5 12 -9 11 -11 -8 -11 -18 0 -22 -4 -18 -17 3 -10 12 -54 22 -98 9
-44 20 -93 25 -110 7 -25 8 -23 3 10 -14 93 -13 96 5 27 22 -82 28 -93 41 -72
6 8 10 11 10 5 1 -13 30 54 30 69 0 6 -5 4 -10 -4 -5 -8 -10 -10 -10 -5 0 13
20 43 20 30 0 -13 20 17 20 30 0 6 -5 3 -10 -5 -5 -8 -10 -10 -10 -4 0 5 6 19
14 29 13 18 16 17 72 -16 33 -19 59 -40 59 -45 0 -15 324 -257 393 -293 40
-21 23 -3 -23 24 -50 29 -321 228 -345 253 -20 21 -16 18 135 -95 252 -188
322 -224 495 -251 96 -16 148 -21 154 -14 4 3 -66 41 -155 84 -88 42 -158 82
-154 87 3 6 -9 17 -27 26 l-33 16 25 -22 25 -21 -25 14 c-14 9 -25 21 -25 28
0 8 -6 15 -14 18 -10 3 -11 0 -5 -9 4 -8 -6 -3 -23 11 -17 14 -29 27 -27 29 2
2 14 -4 26 -15 21 -17 21 -17 -1 8 -13 15 -29 25 -35 21 -6 -3 -8 -3 -4 2 9 9
-9 35 -24 35 -5 0 -6 -6 -2 -12 4 -7 -14 7 -40 32 -44 42 -63 66 -31 40 8 -7
15 -8 15 -2 0 5 -7 15 -15 22 -8 7 -15 9 -15 4 0 -4 -37 28 -82 72 -45 43 -82
82 -81 85 1 3 -3 6 -10 6 -24 1 -118 51 -105 56 16 7 7 6 -62 -3z m-162 -111
c-3 -20 -5 -19 -9 9 -3 20 -2 29 4 23 5 -5 7 -19 5 -32z m9 -51 c-3 -8 -6 -5
-6 6 -1 11 2 17 5 13 3 -3 4 -12 1 -19z m74 -131 c-10 -9 -11 -8 -5 6 3 10 9
15 12 12 3 -3 0 -11 -7 -18z"/>
<path d="M2830 1660 c8 -5 20 -10 25 -10 6 0 3 5 -5 10 -8 5 -19 10 -25 10 -5
0 -3 -5 5 -10z"/>
<path d="M2880 1640 c8 -5 20 -10 25 -10 6 0 3 5 -5 10 -8 5 -19 10 -25 10 -5
0 -3 -5 5 -10z"/>
<path d="M3350 1565 c13 -14 26 -25 28 -25 3 0 -5 11 -18 25 -13 14 -26 25
-28 25 -3 0 5 -11 18 -25z"/>
<path d="M4149 1564 c-7 -9 -36 -29 -64 -45 -27 -16 -45 -29 -39 -29 14 0 96
53 113 73 7 9 11 17 8 17 -2 0 -11 -7 -18 -16z"/>
<path d="M3375 1510 c27 -27 51 -50 54 -50 3 0 -17 23 -44 50 -27 28 -51 50
-54 50 -3 0 17 -22 44 -50z"/>
<path d="M4301 1534 c0 -11 3 -14 6 -6 3 7 2 16 -1 19 -3 4 -6 -2 -5 -13z"/>
<path d="M3420 1507 c0 -10 186 -186 246 -234 74 -56 74 -57 44 -49 -14 4 18
-16 70 -43 58 -30 102 -48 114 -44 11 3 16 1 12 -5 -3 -5 1 -13 10 -16 8 -3
12 -2 9 4 -3 6 0 10 7 11 7 0 2 4 -10 10 -13 5 -28 7 -33 3 -5 -3 -9 -1 -9 4
0 11 -100 58 -117 54 -7 -2 -12 1 -11 6 2 5 -26 31 -62 58 -36 26 -111 92
-167 147 -57 55 -103 97 -103 94z"/>
<path d="M3115 1465 c32 -20 60 -33 62 -31 5 4 -100 66 -113 66 -4 0 18 -16
51 -35z"/>
<path d="M2350 1446 c37 -40 88 -76 61 -42 -8 9 -33 31 -55 48 l-41 32 35 -38z"/>
<path d="M3480 1395 c13 -14 26 -25 28 -25 3 0 -5 11 -18 25 -13 14 -26 25
-28 25 -3 0 5 -11 18 -25z"/>
<path d="M2355 1308 c15 -12 37 -22 49 -23 11 -1 30 -5 41 -9 11 -4 3 2 -18
14 -22 12 -41 19 -44 16 -3 -3 -12 1 -20 9 -8 8 -19 15 -25 15 -6 0 2 -10 17
-22z"/>
<path d="M4329 1295 c17 -54 21 -61 16 -25 -3 19 -10 39 -15 44 -7 7 -7 1 -1
-19z"/>
<path d="M2480 1260 c8 -5 20 -10 25 -10 6 0 3 5 -5 10 -8 5 -19 10 -25 10 -5
0 -3 -5 5 -10z"/>
<path d="M4246 1161 c-68 -35 -71 -36 -183 -36 -81 0 -104 -2 -81 -9 61 -15
188 -2 248 26 47 22 106 59 90 57 -3 -1 -36 -18 -74 -38z"/>
<path d="M3615 1120 c3 -5 11 -10 16 -10 6 0 7 5 4 10 -3 6 -11 10 -16 10 -6
0 -7 -4 -4 -10z"/>
<path d="M3685 1089 c22 -10 49 -18 60 -18 11 0 -5 9 -35 19 -69 24 -77 24
-25 -1z"/>
<path d="M3945 1100 c3 -5 11 -10 16 -10 6 0 7 5 4 10 -3 6 -11 10 -16 10 -6
0 -7 -4 -4 -10z"/>
<path d="M2826 1070 c8 -43 14 -51 14 -19 0 13 -5 31 -10 39 -7 11 -8 5 -4
-20z"/>
<path d="M3790 1060 c14 -4 36 -8 50 -8 22 0 22 1 -5 8 -16 4 -39 8 -50 8 -16
0 -15 -2 5 -8z"/>
<path d="M3881 1046 c2 -2 29 -6 59 -9 34 -3 47 -2 35 3 -19 8 -103 14 -94 6z"/>
<path d="M2847 950 c3 -41 7 -77 9 -79 8 -8 2 105 -6 129 -5 15 -6 -6 -3 -50z"/>
</g>
</svg>
