<?xml version="1.0" standalone="no"?>
<!DOCTYPE svg PUBLIC "-//W3C//DTD SVG 20010904//EN"
 "http://www.w3.org/TR/2001/REC-SVG-20010904/DTD/svg10.dtd">
<svg version="1.0" xmlns="http://www.w3.org/2000/svg"
 width="550.000000pt" height="550.000000pt" viewBox="0 0 550.000000 550.000000"
 preserveAspectRatio="xMidYMid meet">
<metadata>
Created by potrace 1.14, written by Peter Selinger 2001-2017
</metadata>
<g transform="translate(0.000000,550.000000) scale(0.100000,-0.100000)"
fill="#000000" stroke="none">
<path d="M2259 4648 c0 -23 -4 -46 -15 -103 -10 -54 -12 -279 -3 -340 5 -33
11 -73 14 -90 2 -16 9 -46 15 -65 5 -19 10 -36 10 -38 0 -4 -33 15 -120 67
-19 11 -51 29 -70 40 -91 51 -204 143 -281 231 -99 112 -159 173 -165 167 -9
-9 39 -229 93 -420 20 -70 34 -129 32 -131 -2 -3 -108 -7 -234 -10 -216 -6
-264 -8 -440 -22 -187 -14 -291 -13 -375 5 -47 10 -87 17 -89 15 -10 -9 123
-148 209 -219 31 -25 225 -166 248 -180 9 -5 19 -12 22 -15 12 -13 139 -110
185 -142 128 -88 298 -177 485 -253 36 -15 79 -33 95 -40 144 -64 338 -121
495 -145 79 -12 106 -17 143 -25 29 -6 64 -13 105 -21 51 -10 35 -16 -69 -29
-30 -3 -65 -8 -79 -10 -14 -2 -72 -7 -130 -10 -58 -3 -123 -7 -145 -9 -22 -2
-69 -7 -105 -10 -36 -4 -78 -9 -95 -12 -16 -3 -39 -7 -50 -9 -151 -22 -300
-90 -370 -167 -48 -53 -122 -191 -127 -238 -2 -14 -6 -29 -9 -35 -7 -14 -4
-102 5 -150 22 -116 143 -288 277 -396 23 -19 50 -42 61 -51 10 -10 20 -18 22
-18 2 0 30 -17 62 -39 136 -89 439 -258 559 -311 28 -12 59 -27 70 -32 24 -12
-82 93 -220 217 -214 193 -359 362 -389 456 -43 129 4 282 100 332 85 44 200
42 302 -5 85 -39 291 -188 416 -300 17 -16 35 -23 36 -15 1 1 7 37 14 79 27
147 82 178 211 119 l40 -18 -68 -32 c-72 -35 -110 -75 -122 -128 -18 -85 34
-198 103 -226 21 -8 64 -18 97 -22 59 -7 106 -14 135 -19 30 -5 75 -28 124
-63 59 -43 93 -73 303 -274 172 -165 360 -253 518 -242 72 4 165 36 200 69 32
29 32 61 0 124 -31 61 -34 81 -23 139 34 180 37 205 27 216 -7 6 -12 6 -17 -2
-66 -107 -200 -211 -294 -228 l-38 -7 25 53 c54 120 61 217 20 273 -13 18 -15
17 -41 -13 -27 -33 -76 -69 -156 -115 l-46 -27 -55 83 c-89 134 -194 364 -213
467 -3 14 -7 28 -9 32 -3 4 -7 22 -10 40 -3 19 -9 59 -14 89 -11 68 -7 150 9
182 42 81 81 95 305 113 74 6 166 15 195 19 14 2 52 7 85 11 33 4 70 11 83 16
12 5 22 7 22 4 0 -2 39 8 88 21 120 35 123 36 151 50 23 12 28 11 51 -11 28
-27 28 -25 5 -203 -3 -26 -2 -41 4 -38 12 8 132 191 158 241 18 35 55 104 70
129 21 34 44 -123 32 -211 -3 -24 -3 -43 1 -43 9 0 54 58 91 115 36 57 69 153
72 205 2 38 7 48 32 64 16 10 35 19 42 20 7 1 16 5 19 9 27 26 28 -30 4 -163
-35 -203 -159 -482 -319 -720 -17 -24 -28 -46 -26 -48 7 -8 161 126 230 200
161 174 302 401 346 558 16 58 52 233 74 355 2 17 7 41 10 55 12 55 27 126 31
152 5 24 -2 31 -83 79 -117 69 -150 88 -203 117 -25 13 -49 28 -55 32 -24 20
-270 143 -356 179 -93 38 -235 86 -284 95 -108 20 -147 26 -191 30 -49 4 -51
3 -51 -20 -1 -20 7 -26 41 -35 150 -39 200 -63 233 -112 26 -38 35 -99 21
-138 -20 -57 -120 -91 -192 -66 -33 11 -151 86 -250 158 l-59 42 6 -39 c3 -21
9 -67 13 -101 7 -70 8 -70 -61 -52 -22 5 -51 12 -64 15 -12 2 -51 11 -85 19
-34 8 -79 17 -100 21 -21 3 -48 8 -60 10 -29 6 -152 23 -206 29 -25 2 -115 5
-200 6 -129 1 -164 5 -210 22 -167 62 -317 209 -423 412 -14 28 -69 139 -122
248 -52 108 -100 197 -105 197 -6 0 -10 -10 -11 -22z m1210 -1153 c65 -23 241
-107 241 -115 0 -4 -15 -10 -32 -12 -18 -3 -94 -18 -169 -34 l-137 -28 -51 23
c-80 38 -227 139 -210 146 90 33 289 45 358 20z m1531 -46 c-44 -34 -60 -41
-60 -25 0 34 13 46 49 46 l36 0 -25 -21z"/>
<path d="M1307 3284 c-26 -14 -80 -36 -120 -50 -39 -14 -79 -28 -87 -32 -29
-10 -36 -12 -120 -32 -47 -11 -104 -22 -126 -25 -23 -3 -53 -8 -65 -11 -39
-10 -379 -12 -444 -4 -167 22 -166 22 -215 36 -34 9 -22 -10 18 -28 146 -67
345 -127 472 -143 29 -4 62 -9 74 -11 119 -25 499 -24 639 1 15 3 38 7 51 9
49 9 253 66 290 81 l40 17 -50 28 c-27 16 -67 38 -88 51 -22 12 -76 45 -120
73 -45 29 -85 55 -91 58 -5 3 -31 -5 -58 -18z"/>
<path d="M1625 3015 c-55 -13 -143 -36 -195 -51 -134 -36 -158 -42 -165 -38
-3 2 -2 0 2 -5 5 -5 30 -12 57 -16 27 -3 52 -8 56 -10 3 -2 26 -6 50 -9 25 -3
55 -8 67 -10 20 -4 112 -15 185 -21 23 -2 58 3 138 19 8 1 35 8 60 15 61 18
67 19 128 32 28 7 52 15 52 19 0 4 -21 14 -47 23 -27 9 -81 28 -122 41 -106
37 -151 38 -266 11z"/>
<path d="M2095 2349 c-104 -29 -184 -188 -152 -297 31 -101 164 -259 362 -427
39 -33 75 -64 81 -70 6 -5 39 -35 74 -65 156 -135 209 -203 305 -385 32 -60
60 -112 62 -115 9 -11 -1 118 -14 173 -46 197 -125 288 -543 625 -98 79 -200
189 -224 242 -47 100 -19 253 49 277 51 18 198 -14 298 -64 15 -7 27 -10 27
-6 0 12 -100 82 -145 102 -43 19 -131 24 -180 10z"/>
<path d="M2148 2242 c-67 -34 -97 -121 -62 -180 21 -36 49 -56 122 -85 l61
-25 28 86 c37 110 35 138 -13 180 -21 17 -44 32 -53 33 -9 0 -24 2 -33 4 -9 2
-32 -4 -50 -13z"/>
<path d="M2427 2124 c-3 -10 -8 -37 -12 -59 -15 -87 -48 -116 -150 -130 -27
-3 -51 -8 -53 -10 -6 -5 101 -82 124 -89 47 -14 88 -14 115 0 34 17 79 90 79
129 0 33 -31 97 -69 144 -25 31 -29 33 -34 15z"/>
<path d="M2759 2008 c-2 -6 -7 -45 -14 -98 -4 -30 -9 -58 -11 -62 -5 -7 37
-28 144 -72 35 -14 62 -21 60 -17 -2 5 -39 63 -83 129 -68 103 -92 132 -96
120z"/>
<path d="M3045 1767 c-22 -5 -42 -13 -45 -17 -3 -3 -20 -12 -38 -19 -35 -15
-34 -9 -17 -96 3 -16 14 -64 23 -105 l18 -75 33 88 c18 48 35 87 37 87 22 0
131 -72 290 -190 104 -77 228 -160 277 -185 48 -24 87 -42 87 -40 0 3 11 0 25
-5 43 -16 235 -45 235 -36 0 3 -67 39 -149 80 -83 41 -169 88 -193 104 -41 28
-157 140 -278 267 -112 117 -214 164 -305 142z"/>
<path d="M1762 1731 c24 -34 122 -134 179 -183 28 -24 61 -51 73 -61 11 -11
65 -53 120 -95 285 -222 299 -236 371 -382 45 -91 46 -93 42 -50 -10 94 -47
231 -79 295 -49 96 -132 169 -297 261 -18 11 -41 24 -50 29 -19 12 -149 83
-241 133 -36 19 -81 44 -100 55 l-34 21 16 -23z"/>
</g>
</svg>
